<svg width="15" height="15" viewBox="0 0 15 15" fill="none" xmlns="http://www.w3.org/2000/svg">
<path d="M10.4062 14.6007C4.66875 14.6007 0 9.93191 0 4.19441C0.000285959 3.16828 0.374552 2.17744 1.05273 1.40736C1.73091 0.637292 2.66651 0.140794 3.68438 0.0108175C3.98678 -0.0270017 4.29326 0.0349435 4.55723 0.187238C4.82121 0.339532 5.02825 0.573846 5.14687 0.854568L6.56016 4.14519C6.65348 4.35856 6.69207 4.59185 6.67242 4.82391C6.65278 5.05597 6.57552 5.27945 6.44766 5.4741L5.36484 7.11941C5.84454 8.02593 6.58721 8.76615 7.49531 9.24285L9.11953 8.16004C9.31489 8.03102 9.53924 7.95256 9.77242 7.93169C10.0056 7.91083 10.2403 7.94822 10.4555 8.0405L13.7461 9.45379C14.0268 9.57242 14.2611 9.77945 14.4134 10.0434C14.5657 10.3074 14.6277 10.6139 14.5898 10.9163C14.4599 11.9342 13.9634 12.8697 13.1933 13.5479C12.4232 14.2261 11.4324 14.6004 10.4062 14.6007ZM3.68438 1.71941C3.11877 1.84157 2.61209 2.15383 2.24874 2.60418C1.8854 3.05452 1.68732 3.61576 1.6875 4.19441C1.68936 6.5062 2.60854 8.72276 4.24322 10.3574C5.8779 11.9921 8.09447 12.9113 10.4062 12.9132C10.9849 12.9133 11.5461 12.7153 11.9965 12.3519C12.4468 11.9886 12.7591 11.4819 12.8812 10.9163L9.92812 9.65066L8.29688 10.7405C8.09399 10.8747 7.85988 10.9543 7.61722 10.9716C7.37456 10.9888 7.13155 10.9431 6.91172 10.8389C5.54692 10.178 4.44287 9.07888 3.77578 7.71707C3.6685 7.49837 3.62049 7.25535 3.63653 7.01228C3.65257 6.76922 3.7321 6.53462 3.86719 6.33191L4.95 4.67254L3.68438 1.71941Z" fill="black"/>
</svg>
